<svg xmlns="http://www.w3.org/2000/svg" viewBox="0 0 1024 1024" width="1024" height="1024">
  <path fill="#FFFFFF" d="M512 0C229.23 0 0 229.23 0 512c0 226.77 146.98 418.69 350.41 486.1 25.61 4.71 35.01-11.12 35.01-24.68 0-12.17-.47-44.45-.72-87.22-142.46 30.95-172.49-68.71-172.49-68.71-23.31-59.21-56.95-74.97-56.95-74.97-46.54-31.82 3.52-31.2 3.52-31.2 51.44 3.61 78.49 52.81 78.49 52.81 45.72 78.35 119.95 55.7 149.21 42.61 4.62-33.13 17.9-55.7 32.55-68.5-113.75-12.94-233.3-56.87-233.3-253.07 0-55.91 19.97-101.61 52.7-137.47-5.27-12.94-22.83-64.97 5-135.48 0 0 43-13.77 140.84 52.55 40.84-11.36 84.67-17.03 128.25-17.22 43.57.2 87.4 5.87 128.23 17.22 97.84-66.32 140.78-52.55 140.78-52.55 27.87 70.51 10.31 122.54 5.04 135.48 32.78 35.86 52.67 81.56 52.67 137.47 0 196.62-119.74 240.01-233.73 252.8 18.4 15.88 34.73 47.23 34.73 95.15 0 68.72-.62 124.18-.62 141.1 0 13.67 9.24 29.61 35.11 24.6C877.02 930.66 1024 738.73 1024 512 1024 229.23 794.77 0 512 0z"/>
</svg>
