<?xml version="1.0" encoding="utf-8"?>
<!-- Svg Vector Icons : http://www.onlinewebfonts.com/icon -->
<!DOCTYPE svg PUBLIC "-//W3C//DTD SVG 1.1//EN" "http://www.w3.org/Graphics/SVG/1.1/DTD/svg11.dtd">
<svg version="1.1" xmlns="http://www.w3.org/2000/svg" xmlns:xlink="http://www.w3.org/1999/xlink" x="0px" y="0px" viewBox="0 0 256 256" enable-background="new 0 0 256 256" xml:space="preserve">
<metadata> Svg Vector Icons : http://www.onlinewebfonts.com/icon </metadata>
<g>
  <path fill="#FFFFFF" d="M176.3,181.6H79.7c-8.9,0-16.1-1.8-16.1-10.7c0-8.9,7.2-10.7,16.1-10.7h96.5c8.9,0,16.1,1.8,16.1,10.7 C192.4,179.8,185.2,181.6,176.3,181.6z M176.3,138.7H79.7c-8.9,0-16.1-1.9-16.1-10.7c0-8.9,7.2-10.7,16.1-10.7h96.5 c8.9,0,16.1,1.8,16.1,10.7C192.4,136.9,185.2,138.7,176.3,138.7z M176.3,95.8H79.7c-8.9,0-16.1-1.8-16.1-10.7 c0-8.9,7.2-10.7,16.1-10.7h96.5c8.9,0,16.1,1.8,16.1,10.7C192.4,94,185.2,95.8,176.3,95.8z"/>
</g>
</svg>
